%TF.GenerationSoftware,KiCad,Pcbnew,9.0.0*%
%TF.CreationDate,2026-02-06T13:22:11+01:00*%
%TF.ProjectId,Integrated_ACG_separate_v2,496e7465-6772-4617-9465-645f4143475f,rev?*%
%TF.SameCoordinates,Original*%
%TF.FileFunction,Soldermask,Top*%
%TF.FilePolarity,Negative*%
%FSLAX46Y46*%
G04 Gerber Fmt 4.6, Leading zero omitted, Abs format (unit mm)*
G04 Created by KiCad (PCBNEW 9.0.0) date 2026-02-06 13:22:11*
%MOMM*%
%LPD*%
G01*
G04 APERTURE LIST*
G04 Aperture macros list*
%AMRoundRect*
0 Rectangle with rounded corners*
0 $1 Rounding radius*
0 $2 $3 $4 $5 $6 $7 $8 $9 X,Y pos of 4 corners*
0 Add a 4 corners polygon primitive as box body*
4,1,4,$2,$3,$4,$5,$6,$7,$8,$9,$2,$3,0*
0 Add four circle primitives for the rounded corners*
1,1,$1+$1,$2,$3*
1,1,$1+$1,$4,$5*
1,1,$1+$1,$6,$7*
1,1,$1+$1,$8,$9*
0 Add four rect primitives between the rounded corners*
20,1,$1+$1,$2,$3,$4,$5,0*
20,1,$1+$1,$4,$5,$6,$7,0*
20,1,$1+$1,$6,$7,$8,$9,0*
20,1,$1+$1,$8,$9,$2,$3,0*%
G04 Aperture macros list end*
%ADD10RoundRect,0.250000X-1.450000X-0.650000X1.450000X-0.650000X1.450000X0.650000X-1.450000X0.650000X0*%
%ADD11C,2.000000*%
%ADD12R,1.295400X0.711200*%
%ADD13C,1.905000*%
G04 APERTURE END LIST*
D10*
%TO.C,BTN*%
X255930000Y-134210000D03*
%TD*%
D11*
%TO.C,TP8*%
X240700000Y-146500000D03*
%TD*%
%TO.C,TP9*%
X244100000Y-147500000D03*
%TD*%
%TO.C,TP7*%
X238900000Y-141400000D03*
%TD*%
%TO.C,TP3*%
X225100000Y-146900000D03*
%TD*%
D10*
%TO.C,GND*%
X255890000Y-138150000D03*
%TD*%
D11*
%TO.C,TP4*%
X230800000Y-138600000D03*
%TD*%
%TO.C,TP6*%
X234900000Y-147400000D03*
%TD*%
%TO.C,TP5*%
X231600000Y-147400000D03*
%TD*%
%TO.C,TP12*%
X257400000Y-147100000D03*
%TD*%
%TO.C,TP11*%
X250100000Y-148000000D03*
%TD*%
%TO.C,TP10*%
X253400000Y-144500000D03*
%TD*%
%TO.C,TP1*%
X227800000Y-139300000D03*
%TD*%
%TO.C,TP2*%
X215400000Y-144300000D03*
%TD*%
D12*
%TO.C,L4*%
X256914999Y-141600000D03*
X256914999Y-142700000D03*
X256914999Y-143800000D03*
X259865001Y-143800000D03*
X259865001Y-142700000D03*
X259865001Y-141600000D03*
%TD*%
%TO.C,L3*%
X244254999Y-141600000D03*
X244254999Y-142700000D03*
X244254999Y-143800000D03*
X247205001Y-143800000D03*
X247205001Y-142700000D03*
X247205001Y-141600000D03*
%TD*%
%TO.C,L2*%
X231584999Y-141600000D03*
X231584999Y-142700000D03*
X231584999Y-143800000D03*
X234535001Y-143800000D03*
X234535001Y-142700000D03*
X234535001Y-141600000D03*
%TD*%
%TO.C,L1*%
X218899998Y-141600000D03*
X218899998Y-142700000D03*
X218899998Y-143800000D03*
X221850000Y-143800000D03*
X221850000Y-142700000D03*
X221850000Y-141600000D03*
%TD*%
D13*
%TO.C,J1*%
X207510005Y-148679893D03*
X207510005Y-144679893D03*
X207510005Y-140679893D03*
X207510005Y-136679893D03*
%TD*%
M02*
