%TF.GenerationSoftware,KiCad,Pcbnew,9.0.0*%
%TF.CreationDate,2026-02-06T13:22:11+01:00*%
%TF.ProjectId,Integrated_ACG_separate_v2,496e7465-6772-4617-9465-645f4143475f,rev?*%
%TF.SameCoordinates,Original*%
%TF.FileFunction,Copper,L3,Inr*%
%TF.FilePolarity,Positive*%
%FSLAX46Y46*%
G04 Gerber Fmt 4.6, Leading zero omitted, Abs format (unit mm)*
G04 Created by KiCad (PCBNEW 9.0.0) date 2026-02-06 13:22:11*
%MOMM*%
%LPD*%
G01*
G04 APERTURE LIST*
%TA.AperFunction,HeatsinkPad*%
%ADD10C,0.500000*%
%TD*%
%TA.AperFunction,ComponentPad*%
%ADD11C,1.905000*%
%TD*%
%TA.AperFunction,ViaPad*%
%ADD12C,0.600000*%
%TD*%
%TA.AperFunction,Conductor*%
%ADD13C,0.200000*%
%TD*%
G04 APERTURE END LIST*
D10*
%TO.N,GND*%
%TO.C,U1*%
X226600000Y-150812500D03*
X227600000Y-150812500D03*
X228600000Y-150812500D03*
X226600000Y-149812500D03*
X227600000Y-149812500D03*
X228600000Y-149812500D03*
X226600000Y-148812500D03*
X227600000Y-148812500D03*
X228600000Y-148812500D03*
%TD*%
D11*
%TO.N,GND*%
%TO.C,J1*%
X207510005Y-148679893D03*
%TO.N,/uController/LIN*%
X207510005Y-144679893D03*
%TO.N,unconnected-(J1-Pin_3-Pad3)*%
X207510005Y-140679893D03*
%TO.N,+12V*%
X207510005Y-136679893D03*
%TD*%
D12*
%TO.N,+12V*%
X217575000Y-154250000D03*
%TO.N,+5V*%
X231850000Y-152210000D03*
X216675000Y-133080000D03*
X216750000Y-137410000D03*
X220440000Y-148000000D03*
X223770000Y-150290000D03*
X225898909Y-136048909D03*
X246310000Y-137320000D03*
%TO.N,GND*%
X223460000Y-152845000D03*
X260050000Y-137030000D03*
%TO.N,/uController/RST*%
X218325000Y-133080000D03*
X249000000Y-137090000D03*
%TO.N,/uController/MOSI*%
X227660000Y-141980000D03*
X223270000Y-147380000D03*
X237260000Y-142570000D03*
%TO.N,/LED_Driver/LAT*%
X221600000Y-150150000D03*
X226180000Y-140980000D03*
%TO.N,/uController/RSTN*%
X219820000Y-147430000D03*
X225610000Y-132980000D03*
%TO.N,/uController/TX*%
X218890000Y-147760000D03*
X224020000Y-132990000D03*
%TO.N,/LED_Driver/BLANK*%
X222980000Y-149270000D03*
X225453686Y-140793000D03*
%TO.N,/uController/SCK*%
X240400000Y-138730000D03*
X220840000Y-146780000D03*
%TO.N,/uController/EN*%
X222259000Y-152931000D03*
X225940000Y-135230000D03*
%TO.N,/uController/MISO*%
X228620000Y-142000000D03*
X237280000Y-144690000D03*
%TO.N,/uController/RX*%
X217870000Y-147410000D03*
X223110000Y-132830000D03*
%TO.N,+12V*%
X221600000Y-152380000D03*
%TO.N,/LED_Driver/R0*%
X224250000Y-145040000D03*
%TO.N,/LED_Driver/B0*%
X226527528Y-143979254D03*
%TO.N,/LED_Driver/G0*%
X225900000Y-144390000D03*
%TO.N,/LED_Driver/R1*%
X227450000Y-145570000D03*
%TO.N,/LED_Driver/G1*%
X228440000Y-143740000D03*
%TO.N,/LED_Driver/B1*%
X229520000Y-144510000D03*
%TO.N,/LED_Driver/B2*%
X237570768Y-146650000D03*
%TO.N,/LED_Driver/G2*%
X237050000Y-146100000D03*
%TO.N,/LED_Driver/R2*%
X242777329Y-145450000D03*
X235750000Y-145470000D03*
%TO.N,/LED_Driver/R3*%
X256600000Y-148562500D03*
%TO.N,/LED_Driver/G3*%
X234210000Y-149620000D03*
%TO.N,/LED_Driver/B3*%
X236020000Y-150470000D03*
%TO.N,Net-(IC1-(PTCXY{slash}AIN1)_PD7)*%
X252000000Y-134926648D03*
%TD*%
D13*
%TO.N,GND*%
X227600000Y-149812500D02*
X224567500Y-152845000D01*
X224567500Y-152845000D02*
X223460000Y-152845000D01*
%TO.N,/LED_Driver/R2*%
X242777329Y-145450000D02*
X235770000Y-145450000D01*
X235770000Y-145450000D02*
X235750000Y-145470000D01*
%TD*%
%TA.AperFunction,Conductor*%
%TO.N,+5V*%
G36*
X262516064Y-131880944D02*
G01*
X262848923Y-131913727D01*
X262872748Y-131918466D01*
X263186963Y-132013780D01*
X263209418Y-132023081D01*
X263498998Y-132177862D01*
X263519198Y-132191359D01*
X263699643Y-132339443D01*
X263773019Y-132399660D01*
X263790207Y-132416848D01*
X263998509Y-132670656D01*
X264012013Y-132690866D01*
X264024923Y-132715018D01*
X264166797Y-132980435D01*
X264176100Y-133002892D01*
X264271421Y-133317096D01*
X264276164Y-133340937D01*
X264308903Y-133673254D01*
X264309500Y-133685411D01*
X264309500Y-148886828D01*
X264309028Y-148897639D01*
X264283099Y-149193918D01*
X264279345Y-149215203D01*
X264203770Y-149497227D01*
X264196377Y-149517538D01*
X264072976Y-149782155D01*
X264062168Y-149800874D01*
X263894690Y-150040044D01*
X263880796Y-150056601D01*
X263674337Y-150263051D01*
X263657779Y-150276944D01*
X263413751Y-150447806D01*
X263404636Y-150453614D01*
X263395343Y-150458980D01*
X263395334Y-150458985D01*
X263363205Y-150477532D01*
X263363206Y-150477533D01*
X254255778Y-155735568D01*
X254246180Y-155740564D01*
X253976639Y-155866242D01*
X253956330Y-155873633D01*
X253674305Y-155949198D01*
X253653022Y-155952951D01*
X253356671Y-155978883D01*
X253345920Y-155979355D01*
X253345725Y-155979355D01*
X253297627Y-155979356D01*
X253297588Y-155979377D01*
X253281562Y-155979385D01*
X253281561Y-155979384D01*
X253281559Y-155979385D01*
X208707952Y-155999150D01*
X208683857Y-155996620D01*
X208637839Y-155999016D01*
X208631449Y-155999184D01*
X208624948Y-155999187D01*
X208620187Y-155999098D01*
X208384861Y-155990164D01*
X208362756Y-155987320D01*
X208134676Y-155936815D01*
X208113438Y-155930061D01*
X207896888Y-155839042D01*
X207892537Y-155837114D01*
X207886096Y-155834111D01*
X207880367Y-155831258D01*
X207839668Y-155809659D01*
X207816778Y-155801788D01*
X207674769Y-155735568D01*
X206088649Y-154995945D01*
X204486541Y-154248867D01*
X204262966Y-154144612D01*
X216774500Y-154144612D01*
X216774500Y-154355388D01*
X216802236Y-154458899D01*
X216829054Y-154558984D01*
X216866890Y-154624517D01*
X216934441Y-154741518D01*
X217083482Y-154890559D01*
X217211787Y-154964636D01*
X217266015Y-154995945D01*
X217266016Y-154995945D01*
X217266019Y-154995947D01*
X217469612Y-155050500D01*
X217469615Y-155050500D01*
X217680385Y-155050500D01*
X217680388Y-155050500D01*
X217883981Y-154995947D01*
X218066518Y-154890559D01*
X218215559Y-154741518D01*
X218320947Y-154558981D01*
X218375500Y-154355388D01*
X218375500Y-154144612D01*
X218320947Y-153941019D01*
X218215559Y-153758482D01*
X218066518Y-153609441D01*
X218000905Y-153571559D01*
X217883984Y-153504054D01*
X217883985Y-153504054D01*
X217867289Y-153499580D01*
X217680388Y-153449500D01*
X217469612Y-153449500D01*
X217282710Y-153499580D01*
X217266015Y-153504054D01*
X217083485Y-153609439D01*
X217083479Y-153609443D01*
X216934443Y-153758479D01*
X216934439Y-153758485D01*
X216829054Y-153941015D01*
X216829053Y-153941019D01*
X216774500Y-154144612D01*
X204262966Y-154144612D01*
X202365615Y-153259859D01*
X202365615Y-153259860D01*
X202365611Y-153259858D01*
X202352722Y-153253848D01*
X202352718Y-153253846D01*
X202320895Y-153239006D01*
X202313080Y-153235019D01*
X201977879Y-153048744D01*
X201963175Y-153039150D01*
X201938670Y-153020559D01*
X201899464Y-152990814D01*
X201661191Y-152810042D01*
X201647981Y-152798458D01*
X201381409Y-152528968D01*
X201369969Y-152515633D01*
X201239969Y-152340351D01*
X201191213Y-152274612D01*
X220799500Y-152274612D01*
X220799500Y-152485388D01*
X220833249Y-152611340D01*
X220854054Y-152688984D01*
X220917260Y-152798458D01*
X220959441Y-152871518D01*
X221108482Y-153020559D01*
X221157314Y-153048752D01*
X221291015Y-153125945D01*
X221291016Y-153125945D01*
X221291019Y-153125947D01*
X221428576Y-153162805D01*
X221503868Y-153220579D01*
X221511043Y-153235129D01*
X221513053Y-153239982D01*
X221524530Y-153259860D01*
X221618441Y-153422518D01*
X221767482Y-153571559D01*
X221833099Y-153609443D01*
X221950015Y-153676945D01*
X221950016Y-153676945D01*
X221950019Y-153676947D01*
X222053797Y-153704754D01*
X222129090Y-153762527D01*
X222145702Y-153824950D01*
X222144544Y-154165437D01*
X222144541Y-154166589D01*
X222144541Y-154166590D01*
X222183177Y-154361993D01*
X222183178Y-154361999D01*
X222219395Y-154449717D01*
X222219396Y-154449717D01*
X222329869Y-154615462D01*
X222495361Y-154726313D01*
X222583001Y-154762732D01*
X222778314Y-154801815D01*
X230235415Y-154810357D01*
X230235486Y-154810357D01*
X230236004Y-154810357D01*
X230367431Y-154784213D01*
X230431361Y-154771497D01*
X230519042Y-154735178D01*
X230684658Y-154624517D01*
X230795321Y-154458899D01*
X230829308Y-154376847D01*
X230831401Y-154372421D01*
X230831640Y-154371217D01*
X230831641Y-154371217D01*
X230870500Y-154175857D01*
X230870500Y-149514612D01*
X233409500Y-149514612D01*
X233409500Y-149725388D01*
X233459116Y-149910556D01*
X233464054Y-149928984D01*
X233492632Y-149978482D01*
X233569441Y-150111518D01*
X233718482Y-150260559D01*
X233846787Y-150334636D01*
X233901015Y-150365945D01*
X233901016Y-150365945D01*
X233901019Y-150365947D01*
X234104612Y-150420500D01*
X234104615Y-150420500D01*
X234315385Y-150420500D01*
X234315388Y-150420500D01*
X234518981Y-150365947D01*
X234521293Y-150364612D01*
X235219500Y-150364612D01*
X235219500Y-150575388D01*
X235252858Y-150699879D01*
X235274054Y-150778984D01*
X235335297Y-150885059D01*
X235379441Y-150961518D01*
X235528482Y-151110559D01*
X235656787Y-151184636D01*
X235711015Y-151215945D01*
X235711016Y-151215945D01*
X235711019Y-151215947D01*
X235914612Y-151270500D01*
X235914615Y-151270500D01*
X236125385Y-151270500D01*
X236125388Y-151270500D01*
X236328981Y-151215947D01*
X236511518Y-151110559D01*
X236660559Y-150961518D01*
X236765947Y-150778981D01*
X236820500Y-150575388D01*
X236820500Y-150364612D01*
X236765947Y-150161019D01*
X236749708Y-150132893D01*
X236682188Y-150015945D01*
X236660559Y-149978482D01*
X236511518Y-149829441D01*
X236446648Y-149791988D01*
X236328984Y-149724054D01*
X236328985Y-149724054D01*
X236312289Y-149719580D01*
X236125388Y-149669500D01*
X235914612Y-149669500D01*
X235727710Y-149719580D01*
X235711015Y-149724054D01*
X235528485Y-149829439D01*
X235528479Y-149829443D01*
X235379443Y-149978479D01*
X235379439Y-149978485D01*
X235274054Y-150161015D01*
X235274053Y-150161019D01*
X235219500Y-150364612D01*
X234521293Y-150364612D01*
X234701518Y-150260559D01*
X234850559Y-150111518D01*
X234955947Y-149928981D01*
X235010500Y-149725388D01*
X235010500Y-149514612D01*
X234955947Y-149311019D01*
X234850559Y-149128482D01*
X234701518Y-148979441D01*
X234619577Y-148932132D01*
X234518984Y-148874054D01*
X234518985Y-148874054D01*
X234502289Y-148869580D01*
X234315388Y-148819500D01*
X234104612Y-148819500D01*
X233917710Y-148869580D01*
X233901015Y-148874054D01*
X233718485Y-148979439D01*
X233718479Y-148979443D01*
X233569443Y-149128479D01*
X233569439Y-149128485D01*
X233464054Y-149311015D01*
X233464053Y-149311019D01*
X233409500Y-149514612D01*
X230870500Y-149514612D01*
X230870500Y-148457112D01*
X255799500Y-148457112D01*
X255799500Y-148667888D01*
X255845224Y-148838531D01*
X255854054Y-148871484D01*
X255905748Y-148961019D01*
X255959441Y-149054018D01*
X256108482Y-149203059D01*
X256236787Y-149277136D01*
X256291015Y-149308445D01*
X256291016Y-149308445D01*
X256291019Y-149308447D01*
X256494612Y-149363000D01*
X256494615Y-149363000D01*
X256705385Y-149363000D01*
X256705388Y-149363000D01*
X256908981Y-149308447D01*
X257091518Y-149203059D01*
X257240559Y-149054018D01*
X257345947Y-148871481D01*
X257400500Y-148667888D01*
X257400500Y-148457112D01*
X257345947Y-148253519D01*
X257344789Y-148251514D01*
X257314636Y-148199287D01*
X257240559Y-148070982D01*
X257091518Y-147921941D01*
X257037286Y-147890630D01*
X256908984Y-147816554D01*
X256908985Y-147816554D01*
X256892289Y-147812080D01*
X256705388Y-147762000D01*
X256494612Y-147762000D01*
X256307710Y-147812080D01*
X256291015Y-147816554D01*
X256108485Y-147921939D01*
X256108479Y-147921943D01*
X255959443Y-148070979D01*
X255959439Y-148070985D01*
X255854054Y-148253515D01*
X255854053Y-148253519D01*
X255799500Y-148457112D01*
X230870500Y-148457112D01*
X230870500Y-146363998D01*
X230870500Y-146363995D01*
X230831641Y-146168644D01*
X230831640Y-146168643D01*
X230831640Y-146168639D01*
X230797249Y-146085612D01*
X230795322Y-146080960D01*
X230795317Y-146080951D01*
X230684660Y-145915342D01*
X230684657Y-145915339D01*
X230519039Y-145804677D01*
X230436992Y-145770692D01*
X230432564Y-145768598D01*
X230236004Y-145729500D01*
X230236000Y-145729500D01*
X228374500Y-145729500D01*
X228286819Y-145693181D01*
X228250500Y-145605500D01*
X228250500Y-145464614D01*
X228250500Y-145464612D01*
X228223705Y-145364612D01*
X234949500Y-145364612D01*
X234949500Y-145575388D01*
X234977680Y-145680556D01*
X235004054Y-145778984D01*
X235021100Y-145808508D01*
X235109441Y-145961518D01*
X235258482Y-146110559D01*
X235386787Y-146184636D01*
X235441015Y-146215945D01*
X235441016Y-146215945D01*
X235441019Y-146215947D01*
X235644612Y-146270500D01*
X235644615Y-146270500D01*
X235855385Y-146270500D01*
X235855388Y-146270500D01*
X236058981Y-146215947D01*
X236086475Y-146200072D01*
X236180569Y-146187685D01*
X236255863Y-146245459D01*
X236268250Y-146275363D01*
X236291999Y-146363995D01*
X236304054Y-146408984D01*
X236339872Y-146471022D01*
X236409441Y-146591518D01*
X236558482Y-146740559D01*
X236643148Y-146789441D01*
X236741015Y-146845945D01*
X236741016Y-146845945D01*
X236741019Y-146845947D01*
X236741021Y-146845947D01*
X236744711Y-146847476D01*
X236746138Y-146848903D01*
X236748057Y-146850011D01*
X236747760Y-146850524D01*
X236811824Y-146914579D01*
X236817040Y-146929945D01*
X236824819Y-146958977D01*
X236824822Y-146958984D01*
X236860437Y-147020670D01*
X236930209Y-147141518D01*
X237079250Y-147290559D01*
X237207555Y-147364636D01*
X237261783Y-147395945D01*
X237261784Y-147395945D01*
X237261787Y-147395947D01*
X237465380Y-147450500D01*
X237465383Y-147450500D01*
X237676153Y-147450500D01*
X237676156Y-147450500D01*
X237879749Y-147395947D01*
X238062286Y-147290559D01*
X238211327Y-147141518D01*
X238316715Y-146958981D01*
X238371268Y-146755388D01*
X238371268Y-146544612D01*
X238316715Y-146341019D01*
X238286384Y-146288485D01*
X238256371Y-146236500D01*
X238243983Y-146142407D01*
X238301758Y-146067113D01*
X238363758Y-146050500D01*
X242194390Y-146050500D01*
X242279314Y-146085677D01*
X242279365Y-146085612D01*
X242279608Y-146085799D01*
X242282071Y-146086819D01*
X242285811Y-146090559D01*
X242403457Y-146158482D01*
X242468344Y-146195945D01*
X242468345Y-146195945D01*
X242468348Y-146195947D01*
X242671941Y-146250500D01*
X242671944Y-146250500D01*
X242882714Y-146250500D01*
X242882717Y-146250500D01*
X243086310Y-146195947D01*
X243268847Y-146090559D01*
X243417888Y-145941518D01*
X243523276Y-145758981D01*
X243577829Y-145555388D01*
X243577829Y-145344612D01*
X243523276Y-145141019D01*
X243417888Y-144958482D01*
X243268847Y-144809441D01*
X243141644Y-144736000D01*
X243086313Y-144704054D01*
X243086314Y-144704054D01*
X243067381Y-144698981D01*
X242882717Y-144649500D01*
X242671941Y-144649500D01*
X242487277Y-144698981D01*
X242468344Y-144704054D01*
X242285814Y-144809439D01*
X242285808Y-144809443D01*
X242282071Y-144813181D01*
X242279608Y-144814200D01*
X242279365Y-144814388D01*
X242279314Y-144814322D01*
X242194390Y-144849500D01*
X238204500Y-144849500D01*
X238116819Y-144813181D01*
X238080500Y-144725500D01*
X238080500Y-144584614D01*
X238080500Y-144584612D01*
X238025947Y-144381019D01*
X238025681Y-144380559D01*
X237994636Y-144326787D01*
X237920559Y-144198482D01*
X237771518Y-144049441D01*
X237717286Y-144018130D01*
X237588984Y-143944054D01*
X237588985Y-143944054D01*
X237572289Y-143939580D01*
X237385388Y-143889500D01*
X237174612Y-143889500D01*
X236987710Y-143939580D01*
X236971015Y-143944054D01*
X236788485Y-144049439D01*
X236788479Y-144049443D01*
X236639443Y-144198479D01*
X236639439Y-144198485D01*
X236534054Y-144381015D01*
X236534053Y-144381019D01*
X236479500Y-144584612D01*
X236479500Y-144584614D01*
X236479500Y-144725500D01*
X236443181Y-144813181D01*
X236355500Y-144849500D01*
X236309487Y-144849500D01*
X236247487Y-144832887D01*
X236058984Y-144724054D01*
X236058985Y-144724054D01*
X236042289Y-144719580D01*
X235855388Y-144669500D01*
X235644612Y-144669500D01*
X235457710Y-144719580D01*
X235441015Y-144724054D01*
X235258485Y-144829439D01*
X235258479Y-144829443D01*
X235109443Y-144978479D01*
X235109439Y-144978485D01*
X235004054Y-145161015D01*
X235004053Y-145161019D01*
X234949500Y-145364612D01*
X228223705Y-145364612D01*
X228195947Y-145261019D01*
X228189064Y-145249098D01*
X228138212Y-145161019D01*
X228090559Y-145078482D01*
X227941518Y-144929441D01*
X227858513Y-144881518D01*
X227758984Y-144824054D01*
X227758985Y-144824054D01*
X227722911Y-144814388D01*
X227555388Y-144769500D01*
X227344612Y-144769500D01*
X227142407Y-144823680D01*
X227048314Y-144811293D01*
X226990539Y-144736000D01*
X227002927Y-144641906D01*
X227022626Y-144616232D01*
X227168087Y-144470772D01*
X227273475Y-144288235D01*
X227328028Y-144084642D01*
X227328028Y-143873866D01*
X227273475Y-143670273D01*
X227258337Y-143644054D01*
X227228366Y-143592142D01*
X227168087Y-143487736D01*
X227019046Y-143338695D01*
X226922114Y-143282731D01*
X226836512Y-143233308D01*
X226836513Y-143233308D01*
X226812572Y-143226893D01*
X226632916Y-143178754D01*
X226422140Y-143178754D01*
X226242484Y-143226893D01*
X226218543Y-143233308D01*
X226036013Y-143338693D01*
X226036007Y-143338697D01*
X225886971Y-143487733D01*
X225886969Y-143487736D01*
X225860046Y-143534368D01*
X225784753Y-143592141D01*
X225650045Y-143628237D01*
X225591015Y-143644054D01*
X225408485Y-143749439D01*
X225408479Y-143749443D01*
X225259443Y-143898479D01*
X225259439Y-143898485D01*
X225154054Y-144081015D01*
X225154053Y-144081019D01*
X225099500Y-144284612D01*
X225099500Y-144284614D01*
X225099500Y-144458061D01*
X225063181Y-144545742D01*
X224975500Y-144582061D01*
X224887819Y-144545742D01*
X224741520Y-144399443D01*
X224741518Y-144399441D01*
X224687286Y-144368130D01*
X224558984Y-144294054D01*
X224558985Y-144294054D01*
X224523747Y-144284612D01*
X224355388Y-144239500D01*
X224144612Y-144239500D01*
X223976253Y-144284612D01*
X223941015Y-144294054D01*
X223758485Y-144399439D01*
X223758479Y-144399443D01*
X223609443Y-144548479D01*
X223609439Y-144548485D01*
X223504054Y-144731015D01*
X223504053Y-144731019D01*
X223449500Y-144934612D01*
X223449500Y-145145388D01*
X223502883Y-145344614D01*
X223504054Y-145348984D01*
X223515121Y-145368152D01*
X223609441Y-145531518D01*
X223758482Y-145680559D01*
X223843252Y-145729501D01*
X223941015Y-145785945D01*
X223941016Y-145785945D01*
X223941019Y-145785947D01*
X224144612Y-145840500D01*
X224144615Y-145840500D01*
X224243268Y-145840500D01*
X224270326Y-145851707D01*
X224299526Y-145853996D01*
X224312500Y-145869177D01*
X224330949Y-145876819D01*
X224342156Y-145903876D01*
X224361186Y-145926142D01*
X224358747Y-145943929D01*
X224367268Y-145964500D01*
X224353772Y-146020758D01*
X224350501Y-146027182D01*
X224313974Y-146082089D01*
X224277833Y-146169842D01*
X224277832Y-146169844D01*
X224277807Y-146169970D01*
X224277807Y-146169971D01*
X224239368Y-146365281D01*
X224239368Y-146365282D01*
X224240647Y-146997185D01*
X224204505Y-147084940D01*
X224116898Y-147121436D01*
X224029143Y-147085294D01*
X224009260Y-147059436D01*
X223951263Y-146958984D01*
X223910559Y-146888482D01*
X223761518Y-146739441D01*
X223692338Y-146699500D01*
X223578984Y-146634054D01*
X223578985Y-146634054D01*
X223513730Y-146616569D01*
X223375388Y-146579500D01*
X223164612Y-146579500D01*
X223026270Y-146616569D01*
X222961015Y-146634054D01*
X222778485Y-146739439D01*
X222778479Y-146739443D01*
X222629443Y-146888479D01*
X222629439Y-146888485D01*
X222524054Y-147071015D01*
X222524053Y-147071019D01*
X222469500Y-147274612D01*
X222469500Y-147485388D01*
X222524053Y-147688981D01*
X222524054Y-147688984D01*
X222597707Y-147816553D01*
X222629441Y-147871518D01*
X222778482Y-148020559D01*
X222892137Y-148086178D01*
X222961015Y-148125945D01*
X222961016Y-148125945D01*
X222961019Y-148125947D01*
X223164612Y-148180500D01*
X223164615Y-148180500D01*
X223375385Y-148180500D01*
X223375388Y-148180500D01*
X223578981Y-148125947D01*
X223761518Y-148020559D01*
X223910559Y-147871518D01*
X224010803Y-147697889D01*
X224086096Y-147640115D01*
X224180190Y-147652503D01*
X224237965Y-147727796D01*
X224242190Y-147759639D01*
X224248204Y-150731159D01*
X224212063Y-150818914D01*
X224124455Y-150855410D01*
X224123409Y-150855407D01*
X222792020Y-150846872D01*
X222788892Y-150846863D01*
X222788741Y-150846863D01*
X222788599Y-150846863D01*
X222788594Y-150846863D01*
X222594851Y-150885059D01*
X222594842Y-150885061D01*
X222507039Y-150921080D01*
X222341051Y-151031174D01*
X222341048Y-151031176D01*
X222229823Y-151196414D01*
X222193204Y-151283975D01*
X222193203Y-151283980D01*
X222153680Y-151479203D01*
X222153680Y-151479204D01*
X222153402Y-151560819D01*
X222116785Y-151648376D01*
X222028980Y-151684395D01*
X221967403Y-151667783D01*
X221908981Y-151634053D01*
X221705388Y-151579500D01*
X221494612Y-151579500D01*
X221307710Y-151629580D01*
X221291015Y-151634054D01*
X221108485Y-151739439D01*
X221108479Y-151739443D01*
X220959443Y-151888479D01*
X220959439Y-151888485D01*
X220854054Y-152071015D01*
X220854053Y-152071019D01*
X220799500Y-152274612D01*
X201191213Y-152274612D01*
X201144158Y-152211166D01*
X201134721Y-152196354D01*
X200954205Y-151863023D01*
X200946966Y-151847046D01*
X200815371Y-151491538D01*
X200810457Y-151474677D01*
X200769270Y-151283975D01*
X200730432Y-151104149D01*
X200727952Y-151086781D01*
X200700810Y-150704583D01*
X200700500Y-150695940D01*
X200700501Y-150646156D01*
X200700464Y-150646091D01*
X200700453Y-150629878D01*
X200700461Y-150629857D01*
X200700453Y-150629792D01*
X200700453Y-148536780D01*
X206057005Y-148536780D01*
X206057005Y-148823005D01*
X206112841Y-149103709D01*
X206112843Y-149103717D01*
X206222371Y-149368143D01*
X206222376Y-149368152D01*
X206381386Y-149606125D01*
X206381389Y-149606129D01*
X206583768Y-149808508D01*
X206583772Y-149808511D01*
X206821745Y-149967521D01*
X206821754Y-149967526D01*
X206848212Y-149978485D01*
X207086181Y-150077055D01*
X207366892Y-150132892D01*
X207366895Y-150132893D01*
X207366897Y-150132893D01*
X207653115Y-150132893D01*
X207653116Y-150132892D01*
X207933829Y-150077055D01*
X208012153Y-150044612D01*
X220799500Y-150044612D01*
X220799500Y-150255388D01*
X220852615Y-150453614D01*
X220854053Y-150458980D01*
X220854054Y-150458984D01*
X220921259Y-150575385D01*
X220959441Y-150641518D01*
X221108482Y-150790559D01*
X221206003Y-150846863D01*
X221291015Y-150895945D01*
X221291016Y-150895945D01*
X221291019Y-150895947D01*
X221494612Y-150950500D01*
X221494615Y-150950500D01*
X221705385Y-150950500D01*
X221705388Y-150950500D01*
X221908981Y-150895947D01*
X222091518Y-150790559D01*
X222240559Y-150641518D01*
X222345947Y-150458981D01*
X222400500Y-150255388D01*
X222400500Y-150074537D01*
X222436819Y-149986856D01*
X222524500Y-149950537D01*
X222586500Y-149967150D01*
X222671015Y-150015945D01*
X222671016Y-150015945D01*
X222671019Y-150015947D01*
X222874612Y-150070500D01*
X222874615Y-150070500D01*
X223085385Y-150070500D01*
X223085388Y-150070500D01*
X223288981Y-150015947D01*
X223471518Y-149910559D01*
X223620559Y-149761518D01*
X223725947Y-149578981D01*
X223780500Y-149375388D01*
X223780500Y-149164612D01*
X223725947Y-148961019D01*
X223620559Y-148778482D01*
X223471518Y-148629441D01*
X223417286Y-148598130D01*
X223288984Y-148524054D01*
X223288985Y-148524054D01*
X223272289Y-148519580D01*
X223085388Y-148469500D01*
X222874612Y-148469500D01*
X222687710Y-148519580D01*
X222671015Y-148524054D01*
X222488485Y-148629439D01*
X222488479Y-148629443D01*
X222339443Y-148778479D01*
X222339439Y-148778485D01*
X222234054Y-148961015D01*
X222234053Y-148961019D01*
X222179500Y-149164612D01*
X222179500Y-149164614D01*
X222179500Y-149345462D01*
X222143181Y-149433143D01*
X222055500Y-149469462D01*
X221993500Y-149452849D01*
X221908984Y-149404054D01*
X221908985Y-149404054D01*
X221892289Y-149399580D01*
X221705388Y-149349500D01*
X221494612Y-149349500D01*
X221307710Y-149399580D01*
X221291015Y-149404054D01*
X221108485Y-149509439D01*
X221108479Y-149509443D01*
X220959443Y-149658479D01*
X220959439Y-149658485D01*
X220854054Y-149841015D01*
X220854053Y-149841019D01*
X220799500Y-150044612D01*
X208012153Y-150044612D01*
X208198258Y-149967525D01*
X208198819Y-149967150D01*
X208249356Y-149933383D01*
X208349656Y-149866363D01*
X208436238Y-149808511D01*
X208638623Y-149606126D01*
X208797637Y-149368146D01*
X208907167Y-149103717D01*
X208963005Y-148823001D01*
X208963005Y-148536785D01*
X208963005Y-148536782D01*
X208963004Y-148536780D01*
X208956871Y-148505947D01*
X208907167Y-148256069D01*
X208797637Y-147991640D01*
X208797636Y-147991639D01*
X208797633Y-147991633D01*
X208638623Y-147753660D01*
X208638620Y-147753656D01*
X208453246Y-147568282D01*
X211946768Y-147568282D01*
X211946768Y-147621750D01*
X211946768Y-147831718D01*
X211989620Y-147991642D01*
X212014951Y-148086179D01*
X212014952Y-148086180D01*
X212146666Y-148314317D01*
X212146668Y-148314320D01*
X212146669Y-148314321D01*
X212332947Y-148500599D01*
X212332948Y-148500600D01*
X212332950Y-148500601D01*
X212395618Y-148536782D01*
X212561090Y-148632317D01*
X212815550Y-148700500D01*
X212815553Y-148700500D01*
X213078983Y-148700500D01*
X213078986Y-148700500D01*
X213333446Y-148632317D01*
X213561589Y-148500599D01*
X213747867Y-148314321D01*
X213879585Y-148086178D01*
X213947768Y-147831718D01*
X213947768Y-147568282D01*
X213879585Y-147313822D01*
X213874268Y-147304612D01*
X217069500Y-147304612D01*
X217069500Y-147515388D01*
X217118402Y-147697890D01*
X217124054Y-147718984D01*
X217148890Y-147762000D01*
X217229441Y-147901518D01*
X217378482Y-148050559D01*
X217506787Y-148124636D01*
X217561015Y-148155945D01*
X217561016Y-148155945D01*
X217561019Y-148155947D01*
X217764612Y-148210500D01*
X217764615Y-148210500D01*
X217975384Y-148210500D01*
X217975388Y-148210500D01*
X218100311Y-148177026D01*
X218194401Y-148189413D01*
X218239788Y-148234799D01*
X218249441Y-148251518D01*
X218398482Y-148400559D01*
X218496438Y-148457114D01*
X218581015Y-148505945D01*
X218581016Y-148505945D01*
X218581019Y-148505947D01*
X218784612Y-148560500D01*
X218784615Y-148560500D01*
X218995385Y-148560500D01*
X218995388Y-148560500D01*
X219198981Y-148505947D01*
X219381518Y-148400559D01*
X219530559Y-148251518D01*
X219530561Y-148251513D01*
X219535406Y-148246669D01*
X219623088Y-148210350D01*
X219655179Y-148214574D01*
X219714612Y-148230500D01*
X219714614Y-148230500D01*
X219925385Y-148230500D01*
X219925388Y-148230500D01*
X220128981Y-148175947D01*
X220311518Y-148070559D01*
X220460559Y-147921518D01*
X220565947Y-147738981D01*
X220584772Y-147668722D01*
X220642545Y-147593431D01*
X220726162Y-147582422D01*
X220726555Y-147579439D01*
X220734611Y-147580499D01*
X220734612Y-147580500D01*
X220734613Y-147580500D01*
X220945385Y-147580500D01*
X220945388Y-147580500D01*
X221148981Y-147525947D01*
X221331518Y-147420559D01*
X221480559Y-147271518D01*
X221585947Y-147088981D01*
X221640500Y-146885388D01*
X221640500Y-146674612D01*
X221585947Y-146471019D01*
X221480559Y-146288482D01*
X221331518Y-146139441D01*
X221246847Y-146090556D01*
X221148984Y-146034054D01*
X221148985Y-146034054D01*
X221132289Y-146029580D01*
X220945388Y-145979500D01*
X220734612Y-145979500D01*
X220547710Y-146029580D01*
X220531015Y-146034054D01*
X220348485Y-146139439D01*
X220348479Y-146139443D01*
X220199443Y-146288479D01*
X220199439Y-146288485D01*
X220094054Y-146471015D01*
X220094051Y-146471022D01*
X220075226Y-146541276D01*
X220017450Y-146616569D01*
X219933836Y-146627581D01*
X219933444Y-146630561D01*
X219925389Y-146629500D01*
X219925388Y-146629500D01*
X219714612Y-146629500D01*
X219546253Y-146674612D01*
X219511015Y-146684054D01*
X219328485Y-146789439D01*
X219328483Y-146789440D01*
X219174592Y-146943331D01*
X219086911Y-146979649D01*
X219054818Y-146975424D01*
X219020194Y-146966146D01*
X218995388Y-146959500D01*
X218784612Y-146959500D01*
X218659690Y-146992972D01*
X218565596Y-146980584D01*
X218520210Y-146935198D01*
X218510559Y-146918482D01*
X218361520Y-146769443D01*
X218361518Y-146769441D01*
X218307286Y-146738130D01*
X218178984Y-146664054D01*
X218178985Y-146664054D01*
X218162289Y-146659580D01*
X217975388Y-146609500D01*
X217764612Y-146609500D01*
X217577710Y-146659580D01*
X217561015Y-146664054D01*
X217378485Y-146769439D01*
X217378479Y-146769443D01*
X217229443Y-146918479D01*
X217229439Y-146918485D01*
X217124054Y-147101015D01*
X217124053Y-147101019D01*
X217069500Y-147304612D01*
X213874268Y-147304612D01*
X213749775Y-147088984D01*
X213747869Y-147085682D01*
X213747865Y-147085677D01*
X213561590Y-146899402D01*
X213561585Y-146899398D01*
X213333448Y-146767684D01*
X213333447Y-146767683D01*
X213269831Y-146750637D01*
X213078986Y-146699500D01*
X212815550Y-146699500D01*
X212666497Y-146739439D01*
X212561088Y-146767683D01*
X212561087Y-146767684D01*
X212332950Y-146899398D01*
X212332945Y-146899402D01*
X212146670Y-147085677D01*
X212146666Y-147085682D01*
X212014952Y-147313819D01*
X212014951Y-147313820D01*
X211993933Y-147392261D01*
X211946768Y-147568282D01*
X208453246Y-147568282D01*
X208436241Y-147551277D01*
X208436237Y-147551274D01*
X208198264Y-147392264D01*
X208198255Y-147392259D01*
X207933829Y-147282731D01*
X207933821Y-147282729D01*
X207653116Y-147226893D01*
X207653113Y-147226893D01*
X207366897Y-147226893D01*
X207366894Y-147226893D01*
X207086188Y-147282729D01*
X207086180Y-147282731D01*
X206821754Y-147392259D01*
X206821745Y-147392264D01*
X206583772Y-147551274D01*
X206583768Y-147551277D01*
X206381389Y-147753656D01*
X206381386Y-147753660D01*
X206222376Y-147991633D01*
X206222371Y-147991642D01*
X206112843Y-148256068D01*
X206112841Y-148256076D01*
X206057005Y-148536780D01*
X200700453Y-148536780D01*
X200700453Y-144536780D01*
X206057005Y-144536780D01*
X206057005Y-144823005D01*
X206112841Y-145103709D01*
X206112843Y-145103717D01*
X206222371Y-145368143D01*
X206222376Y-145368152D01*
X206381386Y-145606125D01*
X206381389Y-145606129D01*
X206583768Y-145808508D01*
X206583772Y-145808511D01*
X206821745Y-145967521D01*
X206821751Y-145967524D01*
X206821752Y-145967525D01*
X207086181Y-146077055D01*
X207254602Y-146110556D01*
X207366892Y-146132892D01*
X207366895Y-146132893D01*
X207366897Y-146132893D01*
X207653115Y-146132893D01*
X207653116Y-146132892D01*
X207933829Y-146077055D01*
X208198258Y-145967525D01*
X208436238Y-145808511D01*
X208638623Y-145606126D01*
X208797637Y-145368146D01*
X208907167Y-145103717D01*
X208963005Y-144823001D01*
X208963005Y-144536785D01*
X208963005Y-144536782D01*
X208963004Y-144536780D01*
X208935686Y-144399443D01*
X208907167Y-144256069D01*
X208797637Y-143991640D01*
X208797636Y-143991639D01*
X208797633Y-143991633D01*
X208638623Y-143753660D01*
X208638620Y-143753656D01*
X208436241Y-143551277D01*
X208436237Y-143551274D01*
X208198264Y-143392264D01*
X208198255Y-143392259D01*
X207933829Y-143282731D01*
X207933821Y-143282729D01*
X207653116Y-143226893D01*
X207653113Y-143226893D01*
X207366897Y-143226893D01*
X207366894Y-143226893D01*
X207086188Y-143282729D01*
X207086180Y-143282731D01*
X206821754Y-143392259D01*
X206821745Y-143392264D01*
X206583772Y-143551274D01*
X206583768Y-143551277D01*
X206381389Y-143753656D01*
X206381386Y-143753660D01*
X206222376Y-143991633D01*
X206222371Y-143991642D01*
X206112843Y-144256068D01*
X206112841Y-144256076D01*
X206057005Y-144536780D01*
X200700453Y-144536780D01*
X200700453Y-140536780D01*
X206057005Y-140536780D01*
X206057005Y-140823005D01*
X206112841Y-141103709D01*
X206112843Y-141103717D01*
X206222371Y-141368143D01*
X206222376Y-141368152D01*
X206381386Y-141606125D01*
X206381389Y-141606129D01*
X206583768Y-141808508D01*
X206583772Y-141808511D01*
X206821745Y-141967521D01*
X206821751Y-141967524D01*
X206821752Y-141967525D01*
X207086181Y-142077055D01*
X207366892Y-142132892D01*
X207366895Y-142132893D01*
X207366897Y-142132893D01*
X207653115Y-142132893D01*
X207653116Y-142132892D01*
X207933829Y-142077055D01*
X208198258Y-141967525D01*
X208436238Y-141808511D01*
X208638623Y-141606126D01*
X208797637Y-141368146D01*
X208907167Y-141103717D01*
X208963005Y-140823001D01*
X208963005Y-140687612D01*
X224653186Y-140687612D01*
X224653186Y-140898388D01*
X224703292Y-141085385D01*
X224707740Y-141101984D01*
X224764042Y-141199500D01*
X224813127Y-141284518D01*
X224962168Y-141433559D01*
X225090473Y-141507636D01*
X225144701Y-141538945D01*
X225144702Y-141538945D01*
X225144705Y-141538947D01*
X225348298Y-141593500D01*
X225348301Y-141593500D01*
X225559074Y-141593500D01*
X225570634Y-141590402D01*
X225664727Y-141602782D01*
X225681818Y-141615895D01*
X225682036Y-141615612D01*
X225688476Y-141620553D01*
X225688482Y-141620559D01*
X225801290Y-141685689D01*
X225871015Y-141725945D01*
X225871016Y-141725945D01*
X225871019Y-141725947D01*
X226074612Y-141780500D01*
X226074615Y-141780500D01*
X226285385Y-141780500D01*
X226285388Y-141780500D01*
X226488981Y-141725947D01*
X226671518Y-141620559D01*
X226694067Y-141598009D01*
X226781745Y-141561691D01*
X226869427Y-141598008D01*
X226905747Y-141685689D01*
X226901522Y-141717784D01*
X226899335Y-141725947D01*
X226859500Y-141874612D01*
X226859500Y-142085388D01*
X226906561Y-142261019D01*
X226914054Y-142288984D01*
X226974965Y-142394484D01*
X227019441Y-142471518D01*
X227168482Y-142620559D01*
X227296787Y-142694636D01*
X227351015Y-142725945D01*
X227351016Y-142725945D01*
X227351019Y-142725947D01*
X227554612Y-142780500D01*
X227554615Y-142780500D01*
X227765385Y-142780500D01*
X227765388Y-142780500D01*
X227968981Y-142725947D01*
X227968983Y-142725945D01*
X227968985Y-142725945D01*
X227968986Y-142725944D01*
X228056556Y-142675385D01*
X228060678Y-142673004D01*
X228077290Y-142670817D01*
X228090586Y-142660616D01*
X228122679Y-142664841D01*
X228154771Y-142660616D01*
X228184673Y-142673001D01*
X228288219Y-142732783D01*
X228345993Y-142808077D01*
X228333605Y-142902171D01*
X228258312Y-142959944D01*
X228154392Y-142987789D01*
X228131015Y-142994054D01*
X227948485Y-143099439D01*
X227948479Y-143099443D01*
X227799443Y-143248479D01*
X227799439Y-143248485D01*
X227694054Y-143431015D01*
X227694053Y-143431019D01*
X227639500Y-143634612D01*
X227639500Y-143845388D01*
X227678689Y-143991642D01*
X227694054Y-144048984D01*
X227768130Y-144177286D01*
X227799441Y-144231518D01*
X227948482Y-144380559D01*
X228076787Y-144454636D01*
X228131015Y-144485945D01*
X228131016Y-144485945D01*
X228131019Y-144485947D01*
X228334612Y-144540500D01*
X228334615Y-144540500D01*
X228545386Y-144540500D01*
X228545388Y-144540500D01*
X228569338Y-144534082D01*
X228663430Y-144546467D01*
X228721207Y-144621759D01*
X228750483Y-144731019D01*
X228774054Y-144818984D01*
X228825071Y-144907347D01*
X228879441Y-145001518D01*
X229028482Y-145150559D01*
X229097662Y-145190500D01*
X229211015Y-145255945D01*
X229211016Y-145255945D01*
X229211019Y-145255947D01*
X229414612Y-145310500D01*
X229414615Y-145310500D01*
X229625385Y-145310500D01*
X229625388Y-145310500D01*
X229828981Y-145255947D01*
X229832275Y-145254044D01*
X229840845Y-145249098D01*
X229900160Y-145214851D01*
X230011518Y-145150559D01*
X230160559Y-145001518D01*
X230265947Y-144818981D01*
X230320500Y-144615388D01*
X230320500Y-144404612D01*
X230265947Y-144201019D01*
X230264482Y-144198482D01*
X230234636Y-144146787D01*
X230160559Y-144018482D01*
X230011518Y-143869441D01*
X229957286Y-143838130D01*
X229828984Y-143764054D01*
X229828985Y-143764054D01*
X229774456Y-143749443D01*
X229625388Y-143709500D01*
X229414612Y-143709500D01*
X229414608Y-143709500D01*
X229390657Y-143715918D01*
X229296564Y-143703529D01*
X229238792Y-143628238D01*
X229185947Y-143431019D01*
X229080559Y-143248482D01*
X228931518Y-143099441D01*
X228865827Y-143061514D01*
X228771781Y-143007216D01*
X228714006Y-142931922D01*
X228726394Y-142837829D01*
X228801685Y-142780056D01*
X228928981Y-142745947D01*
X229111518Y-142640559D01*
X229260559Y-142491518D01*
X229276093Y-142464612D01*
X236459500Y-142464612D01*
X236459500Y-142675388D01*
X236514053Y-142878981D01*
X236514054Y-142878984D01*
X236588090Y-143007216D01*
X236619441Y-143061518D01*
X236768482Y-143210559D01*
X236834172Y-143248485D01*
X236951015Y-143315945D01*
X236951016Y-143315945D01*
X236951019Y-143315947D01*
X237154612Y-143370500D01*
X237154615Y-143370500D01*
X237365385Y-143370500D01*
X237365388Y-143370500D01*
X237568981Y-143315947D01*
X237751518Y-143210559D01*
X237900559Y-143061518D01*
X238005947Y-142878981D01*
X238060500Y-142675388D01*
X238060500Y-142464612D01*
X238005947Y-142261019D01*
X237900559Y-142078482D01*
X237751518Y-141929441D01*
X237656552Y-141874612D01*
X237568984Y-141824054D01*
X237568985Y-141824054D01*
X237552289Y-141819580D01*
X237365388Y-141769500D01*
X237154612Y-141769500D01*
X236967710Y-141819580D01*
X236951015Y-141824054D01*
X236768485Y-141929439D01*
X236768479Y-141929443D01*
X236619443Y-142078479D01*
X236619439Y-142078485D01*
X236514054Y-142261015D01*
X236514053Y-142261019D01*
X236459500Y-142464612D01*
X229276093Y-142464612D01*
X229365947Y-142308981D01*
X229420500Y-142105388D01*
X229420500Y-141894612D01*
X229365947Y-141691019D01*
X229260559Y-141508482D01*
X229111518Y-141359441D01*
X229020679Y-141306995D01*
X228928984Y-141254054D01*
X228928985Y-141254054D01*
X228912289Y-141249580D01*
X228725388Y-141199500D01*
X228514612Y-141199500D01*
X228385656Y-141234054D01*
X228311018Y-141254053D01*
X228219319Y-141306995D01*
X228125225Y-141319381D01*
X228095320Y-141306994D01*
X227968984Y-141234054D01*
X227968985Y-141234054D01*
X227952289Y-141229580D01*
X227765388Y-141179500D01*
X227554612Y-141179500D01*
X227367710Y-141229580D01*
X227351015Y-141234054D01*
X227168485Y-141339439D01*
X227168482Y-141339441D01*
X227145932Y-141361991D01*
X227058250Y-141398308D01*
X226970569Y-141361988D01*
X226934252Y-141274306D01*
X226938475Y-141242223D01*
X226980500Y-141085388D01*
X226980500Y-140874612D01*
X226925947Y-140671019D01*
X226820559Y-140488482D01*
X226671518Y-140339441D01*
X226617286Y-140308130D01*
X226488984Y-140234054D01*
X226488985Y-140234054D01*
X226472289Y-140229580D01*
X226285388Y-140179500D01*
X226074612Y-140179500D01*
X226074610Y-140179500D01*
X226063042Y-140182600D01*
X225968948Y-140170211D01*
X225951867Y-140157104D01*
X225951650Y-140157388D01*
X225945208Y-140152445D01*
X225945204Y-140152441D01*
X225890972Y-140121130D01*
X225762670Y-140047054D01*
X225762671Y-140047054D01*
X225745975Y-140042580D01*
X225559074Y-139992500D01*
X225348298Y-139992500D01*
X225161396Y-140042580D01*
X225144701Y-140047054D01*
X224962171Y-140152439D01*
X224962165Y-140152443D01*
X224813129Y-140301479D01*
X224813125Y-140301485D01*
X224707740Y-140484015D01*
X224707739Y-140484019D01*
X224653186Y-140687612D01*
X208963005Y-140687612D01*
X208963005Y-140536785D01*
X208963005Y-140536782D01*
X208963004Y-140536780D01*
X208907167Y-140256069D01*
X208797637Y-139991640D01*
X208797636Y-139991639D01*
X208797633Y-139991633D01*
X208638623Y-139753660D01*
X208638620Y-139753656D01*
X208436241Y-139551277D01*
X208436237Y-139551274D01*
X208198264Y-139392264D01*
X208198255Y-139392259D01*
X207933829Y-139282731D01*
X207933821Y-139282729D01*
X207653116Y-139226893D01*
X207653113Y-139226893D01*
X207366897Y-139226893D01*
X207366894Y-139226893D01*
X207086188Y-139282729D01*
X207086180Y-139282731D01*
X206821754Y-139392259D01*
X206821745Y-139392264D01*
X206583772Y-139551274D01*
X206583768Y-139551277D01*
X206381389Y-139753656D01*
X206381386Y-139753660D01*
X206222376Y-139991633D01*
X206222371Y-139991642D01*
X206112843Y-140256068D01*
X206112841Y-140256076D01*
X206057005Y-140536780D01*
X200700453Y-140536780D01*
X200700453Y-138137238D01*
X211946425Y-138137238D01*
X211946778Y-138204292D01*
X211946780Y-138204944D01*
X211946780Y-138253952D01*
X211947121Y-138257334D01*
X211947538Y-138336951D01*
X211947539Y-138336957D01*
X212017051Y-138591044D01*
X212149950Y-138818476D01*
X212149953Y-138818480D01*
X212337193Y-139003771D01*
X212566008Y-139134289D01*
X212820807Y-139201139D01*
X212820812Y-139201138D01*
X212820813Y-139201139D01*
X212942385Y-139200504D01*
X213084226Y-139199765D01*
X213338314Y-139130262D01*
X213565756Y-138997365D01*
X213751053Y-138810131D01*
X213856882Y-138624612D01*
X239599500Y-138624612D01*
X239599500Y-138835388D01*
X239654053Y-139038981D01*
X239654054Y-139038984D01*
X239709079Y-139134289D01*
X239759441Y-139221518D01*
X239908482Y-139370559D01*
X240036787Y-139444636D01*
X240091015Y-139475945D01*
X240091016Y-139475945D01*
X240091019Y-139475947D01*
X240294612Y-139530500D01*
X240294615Y-139530500D01*
X240505385Y-139530500D01*
X240505388Y-139530500D01*
X240708981Y-139475947D01*
X240891518Y-139370559D01*
X241040559Y-139221518D01*
X241145947Y-139038981D01*
X241200500Y-138835388D01*
X241200500Y-138624612D01*
X241145947Y-138421019D01*
X241040559Y-138238482D01*
X240891518Y-138089441D01*
X240837286Y-138058130D01*
X240708984Y-137984054D01*
X240708985Y-137984054D01*
X240692289Y-137979580D01*
X240505388Y-137929500D01*
X240294612Y-137929500D01*
X240107710Y-137979580D01*
X240091015Y-137984054D01*
X239908485Y-138089439D01*
X239908479Y-138089443D01*
X239759443Y-138238479D01*
X239759439Y-138238485D01*
X239654054Y-138421015D01*
X239654053Y-138421019D01*
X239599500Y-138624612D01*
X213856882Y-138624612D01*
X213881578Y-138581319D01*
X213948435Y-138326522D01*
X213947757Y-138195775D01*
X213947755Y-138195132D01*
X213947755Y-137270330D01*
X213947766Y-137253726D01*
X213947768Y-137253724D01*
X213947768Y-137251329D01*
X213947819Y-137251203D01*
X213947819Y-137200000D01*
X213947820Y-137200000D01*
X213947819Y-137068277D01*
X213925401Y-136984612D01*
X248199500Y-136984612D01*
X248199500Y-137195388D01*
X248254053Y-137398981D01*
X248254054Y-137398984D01*
X248324798Y-137521514D01*
X248359441Y-137581518D01*
X248508482Y-137730559D01*
X248636787Y-137804636D01*
X248691015Y-137835945D01*
X248691016Y-137835945D01*
X248691019Y-137835947D01*
X248894612Y-137890500D01*
X248894615Y-137890500D01*
X249105385Y-137890500D01*
X249105388Y-137890500D01*
X249308981Y-137835947D01*
X249491518Y-137730559D01*
X249640559Y-137581518D01*
X249745947Y-137398981D01*
X249800500Y-137195388D01*
X249800500Y-136984612D01*
X249784423Y-136924612D01*
X259249500Y-136924612D01*
X259249500Y-137135388D01*
X259281218Y-137253759D01*
X259304054Y-137338984D01*
X259378130Y-137467286D01*
X259409441Y-137521518D01*
X259558482Y-137670559D01*
X259662400Y-137730556D01*
X259741015Y-137775945D01*
X259741016Y-137775945D01*
X259741019Y-137775947D01*
X259944612Y-137830500D01*
X259944615Y-137830500D01*
X260155385Y-137830500D01*
X260155388Y-137830500D01*
X260358981Y-137775947D01*
X260541518Y-137670559D01*
X260690559Y-137521518D01*
X260795947Y-137338981D01*
X260850500Y-137135388D01*
X260850500Y-136924612D01*
X260795947Y-136721019D01*
X260690559Y-136538482D01*
X260541518Y-136389441D01*
X260462904Y-136344053D01*
X260358984Y-136284054D01*
X260358985Y-136284054D01*
X260342289Y-136279580D01*
X260155388Y-136229500D01*
X259944612Y-136229500D01*
X259757710Y-136279580D01*
X259741015Y-136284054D01*
X259558485Y-136389439D01*
X259558479Y-136389443D01*
X259409443Y-136538479D01*
X259409439Y-136538485D01*
X259304054Y-136721015D01*
X259304053Y-136721019D01*
X259249500Y-136924612D01*
X249784423Y-136924612D01*
X249745947Y-136781019D01*
X249640559Y-136598482D01*
X249491518Y-136449441D01*
X249437286Y-136418130D01*
X249308984Y-136344054D01*
X249308985Y-136344054D01*
X249292289Y-136339580D01*
X249105388Y-136289500D01*
X248894612Y-136289500D01*
X248707710Y-136339580D01*
X248691015Y-136344054D01*
X248508485Y-136449439D01*
X248508479Y-136449443D01*
X248359443Y-136598479D01*
X248359439Y-136598485D01*
X248254054Y-136781015D01*
X248254053Y-136781019D01*
X248199500Y-136984612D01*
X213925401Y-136984612D01*
X213879633Y-136813807D01*
X213747907Y-136585657D01*
X213561620Y-136399375D01*
X213561617Y-136399373D01*
X213561616Y-136399372D01*
X213561615Y-136399371D01*
X213333468Y-136267657D01*
X213333470Y-136267657D01*
X213191052Y-136229500D01*
X213078994Y-136199477D01*
X213078993Y-136199477D01*
X212815547Y-136199484D01*
X212561078Y-136267678D01*
X212332934Y-136399409D01*
X212332931Y-136399412D01*
X212146656Y-136585704D01*
X212014946Y-136813856D01*
X212014942Y-136813866D01*
X211946774Y-137068327D01*
X211946773Y-137068333D01*
X211946780Y-137195389D01*
X211946780Y-138134487D01*
X211946425Y-138137238D01*
X200700453Y-138137238D01*
X200700453Y-136536780D01*
X206057005Y-136536780D01*
X206057005Y-136823005D01*
X206112841Y-137103709D01*
X206112843Y-137103717D01*
X206222371Y-137368143D01*
X206222376Y-137368152D01*
X206381386Y-137606125D01*
X206381389Y-137606129D01*
X206583768Y-137808508D01*
X206583772Y-137808511D01*
X206821745Y-137967521D01*
X206821754Y-137967526D01*
X206881657Y-137992338D01*
X207086181Y-138077055D01*
X207366892Y-138132892D01*
X207366895Y-138132893D01*
X207366897Y-138132893D01*
X207653115Y-138132893D01*
X207653116Y-138132892D01*
X207933829Y-138077055D01*
X208001805Y-138048898D01*
X208068403Y-138021313D01*
X208068405Y-138021312D01*
X208158356Y-137984053D01*
X208198258Y-137967525D01*
X208436238Y-137808511D01*
X208638623Y-137606126D01*
X208797637Y-137368146D01*
X208907167Y-137103717D01*
X208963005Y-136823001D01*
X208963005Y-136536785D01*
X208963005Y-136536782D01*
X208963004Y-136536780D01*
X208907167Y-136256069D01*
X208797637Y-135991640D01*
X208797636Y-135991639D01*
X208797633Y-135991633D01*
X208638623Y-135753660D01*
X208638620Y-135753656D01*
X208436241Y-135551277D01*
X208436237Y-135551274D01*
X208198264Y-135392264D01*
X208198255Y-135392259D01*
X207933829Y-135282731D01*
X207933821Y-135282729D01*
X207709468Y-135238102D01*
X207653117Y-135226893D01*
X207653113Y-135226893D01*
X207366897Y-135226893D01*
X207366894Y-135226893D01*
X207086188Y-135282729D01*
X207086180Y-135282731D01*
X206821754Y-135392259D01*
X206821745Y-135392264D01*
X206583772Y-135551274D01*
X206583768Y-135551277D01*
X206381389Y-135753656D01*
X206381386Y-135753660D01*
X206222376Y-135991633D01*
X206222371Y-135991642D01*
X206112843Y-136256068D01*
X206112841Y-136256076D01*
X206057005Y-136536780D01*
X200700453Y-136536780D01*
X200700453Y-135124612D01*
X225139500Y-135124612D01*
X225139500Y-135335388D01*
X225194053Y-135538981D01*
X225194054Y-135538984D01*
X225268130Y-135667286D01*
X225299441Y-135721518D01*
X225448482Y-135870559D01*
X225576787Y-135944636D01*
X225631015Y-135975945D01*
X225631016Y-135975945D01*
X225631019Y-135975947D01*
X225834612Y-136030500D01*
X225834615Y-136030500D01*
X226045385Y-136030500D01*
X226045388Y-136030500D01*
X226248981Y-135975947D01*
X226431518Y-135870559D01*
X226580559Y-135721518D01*
X226685947Y-135538981D01*
X226740500Y-135335388D01*
X226740500Y-135124612D01*
X226685947Y-134921019D01*
X226628351Y-134821260D01*
X251199500Y-134821260D01*
X251199500Y-135032036D01*
X251251712Y-135226893D01*
X251254054Y-135235632D01*
X251281246Y-135282729D01*
X251359441Y-135418166D01*
X251508482Y-135567207D01*
X251636787Y-135641284D01*
X251691015Y-135672593D01*
X251691016Y-135672593D01*
X251691019Y-135672595D01*
X251894612Y-135727148D01*
X251894615Y-135727148D01*
X252105385Y-135727148D01*
X252105388Y-135727148D01*
X252308981Y-135672595D01*
X252491518Y-135567207D01*
X252640559Y-135418166D01*
X252745947Y-135235629D01*
X252800500Y-135032036D01*
X252800500Y-134821260D01*
X252745947Y-134617667D01*
X252640559Y-134435130D01*
X252491518Y-134286089D01*
X252430938Y-134251113D01*
X252308984Y-134180702D01*
X252308985Y-134180702D01*
X252292289Y-134176228D01*
X252105388Y-134126148D01*
X251894612Y-134126148D01*
X251707710Y-134176228D01*
X251691015Y-134180702D01*
X251508485Y-134286087D01*
X251508479Y-134286091D01*
X251359443Y-134435127D01*
X251359439Y-134435133D01*
X251254054Y-134617663D01*
X251254053Y-134617667D01*
X251199500Y-134821260D01*
X226628351Y-134821260D01*
X226580559Y-134738482D01*
X226431518Y-134589441D01*
X226377286Y-134558130D01*
X226248984Y-134484054D01*
X226248985Y-134484054D01*
X226198046Y-134470405D01*
X226045388Y-134429500D01*
X225834612Y-134429500D01*
X225681954Y-134470405D01*
X225631015Y-134484054D01*
X225448485Y-134589439D01*
X225448479Y-134589443D01*
X225299443Y-134738479D01*
X225299439Y-134738485D01*
X225194054Y-134921015D01*
X225194053Y-134921019D01*
X225139500Y-135124612D01*
X200700453Y-135124612D01*
X200700453Y-134770279D01*
X200700464Y-134753906D01*
X200700501Y-134753844D01*
X200700500Y-134704917D01*
X200700503Y-134704908D01*
X200700885Y-134695245D01*
X200734437Y-134270387D01*
X200737499Y-134251123D01*
X200836183Y-133841560D01*
X200842234Y-133823007D01*
X201003988Y-133434014D01*
X201012881Y-133416635D01*
X201026185Y-133395019D01*
X201233689Y-133057869D01*
X201245191Y-133042110D01*
X201303131Y-132974612D01*
X217524500Y-132974612D01*
X217524500Y-133185388D01*
X217565190Y-133337243D01*
X217579054Y-133388984D01*
X217635830Y-133487321D01*
X217684441Y-133571518D01*
X217833482Y-133720559D01*
X217937303Y-133780500D01*
X218016015Y-133825945D01*
X218016016Y-133825945D01*
X218016019Y-133825947D01*
X218219612Y-133880500D01*
X218219615Y-133880500D01*
X218430385Y-133880500D01*
X218430388Y-133880500D01*
X218633981Y-133825947D01*
X218816518Y-133720559D01*
X218965559Y-133571518D01*
X219070947Y-133388981D01*
X219125500Y-133185388D01*
X219125500Y-132974612D01*
X219070947Y-132771019D01*
X218965559Y-132588482D01*
X218816518Y-132439441D01*
X218761034Y-132407407D01*
X218633984Y-132334054D01*
X218633985Y-132334054D01*
X218617289Y-132329580D01*
X218430388Y-132279500D01*
X218219612Y-132279500D01*
X218032710Y-132329580D01*
X218016015Y-132334054D01*
X217833485Y-132439439D01*
X217833479Y-132439443D01*
X217684443Y-132588479D01*
X217684439Y-132588485D01*
X217579054Y-132771015D01*
X217579053Y-132771019D01*
X217524500Y-132974612D01*
X201303131Y-132974612D01*
X201519593Y-132722440D01*
X201533426Y-132708684D01*
X201854604Y-132436057D01*
X201870422Y-132424645D01*
X202230418Y-132205816D01*
X202247838Y-132197025D01*
X202637720Y-132037424D01*
X202656296Y-132031478D01*
X203066412Y-131935057D01*
X203085688Y-131932103D01*
X203510727Y-131900900D01*
X203519706Y-131900568D01*
X203520060Y-131900567D01*
X203569326Y-131900841D01*
X203569872Y-131900528D01*
X203585710Y-131900516D01*
X203586459Y-131900516D01*
X203586472Y-131900521D01*
X203586511Y-131900516D01*
X222667412Y-131893984D01*
X222755103Y-131930273D01*
X222791452Y-132017942D01*
X222755163Y-132105635D01*
X222729453Y-132125371D01*
X222618482Y-132189441D01*
X222618479Y-132189443D01*
X222469443Y-132338479D01*
X222469439Y-132338485D01*
X222364054Y-132521015D01*
X222364053Y-132521019D01*
X222309500Y-132724612D01*
X222309500Y-132935388D01*
X222364053Y-133138981D01*
X222364054Y-133138984D01*
X222390844Y-133185385D01*
X222469441Y-133321518D01*
X222618482Y-133470559D01*
X222746787Y-133544636D01*
X222801015Y-133575945D01*
X222801016Y-133575945D01*
X222801019Y-133575947D01*
X223004612Y-133630500D01*
X223004615Y-133630500D01*
X223215385Y-133630500D01*
X223215388Y-133630500D01*
X223393120Y-133582876D01*
X223487212Y-133595264D01*
X223512893Y-133614970D01*
X223528482Y-133630559D01*
X223656787Y-133704636D01*
X223711015Y-133735945D01*
X223711016Y-133735945D01*
X223711019Y-133735947D01*
X223914612Y-133790500D01*
X223914615Y-133790500D01*
X224125385Y-133790500D01*
X224125388Y-133790500D01*
X224328981Y-133735947D01*
X224511518Y-133630559D01*
X224660559Y-133481518D01*
X224710500Y-133395017D01*
X224785792Y-133337243D01*
X224879885Y-133349630D01*
X224925273Y-133395017D01*
X224969441Y-133471518D01*
X225118482Y-133620559D01*
X225221163Y-133679842D01*
X225301015Y-133725945D01*
X225301016Y-133725945D01*
X225301019Y-133725947D01*
X225504612Y-133780500D01*
X225504615Y-133780500D01*
X225715385Y-133780500D01*
X225715388Y-133780500D01*
X225918981Y-133725947D01*
X226101518Y-133620559D01*
X226250559Y-133471518D01*
X226355947Y-133288981D01*
X226410500Y-133085388D01*
X226410500Y-132874612D01*
X226355947Y-132671019D01*
X226355737Y-132670656D01*
X226269344Y-132521019D01*
X226250559Y-132488482D01*
X226101518Y-132339441D01*
X226047286Y-132308130D01*
X225918984Y-132234054D01*
X225918985Y-132234054D01*
X225884206Y-132224735D01*
X225715388Y-132179500D01*
X225504612Y-132179500D01*
X225335794Y-132224735D01*
X225301015Y-132234054D01*
X225118485Y-132339439D01*
X225118479Y-132339443D01*
X224969443Y-132488479D01*
X224969441Y-132488482D01*
X224919500Y-132574982D01*
X224844206Y-132632756D01*
X224750112Y-132620368D01*
X224704726Y-132574981D01*
X224695545Y-132559079D01*
X224660559Y-132498482D01*
X224511518Y-132349441D01*
X224457286Y-132318130D01*
X224328984Y-132244054D01*
X224328985Y-132244054D01*
X224303118Y-132237123D01*
X224125388Y-132189500D01*
X223914612Y-132189500D01*
X223736880Y-132237123D01*
X223642787Y-132224735D01*
X223617106Y-132205029D01*
X223601520Y-132189443D01*
X223601518Y-132189441D01*
X223490546Y-132125371D01*
X223490023Y-132125069D01*
X223432248Y-132049775D01*
X223444636Y-131955682D01*
X223519930Y-131897907D01*
X223551980Y-131893682D01*
X262503898Y-131880348D01*
X262516064Y-131880944D01*
G37*
%TD.AperFunction*%
%TD*%
%TA.AperFunction,Conductor*%
%TO.N,GND*%
G36*
X227038249Y-146256613D02*
G01*
X227141015Y-146315945D01*
X227141016Y-146315945D01*
X227141019Y-146315947D01*
X227344612Y-146370500D01*
X227344615Y-146370500D01*
X227555385Y-146370500D01*
X227555388Y-146370500D01*
X227758981Y-146315947D01*
X227827619Y-146276319D01*
X227861751Y-146256613D01*
X227923751Y-146240000D01*
X230236000Y-146240000D01*
X230323681Y-146276319D01*
X230360000Y-146364000D01*
X230360000Y-154175857D01*
X230323681Y-154263538D01*
X230236000Y-154299857D01*
X230235858Y-154299857D01*
X222778899Y-154291315D01*
X222691259Y-154254896D01*
X222655041Y-154167174D01*
X222656641Y-153696924D01*
X222693256Y-153609371D01*
X222718637Y-153589965D01*
X222750518Y-153571559D01*
X222899559Y-153422518D01*
X223004947Y-153239981D01*
X223059500Y-153036388D01*
X223059500Y-152825612D01*
X223004947Y-152622019D01*
X222899559Y-152439482D01*
X222750518Y-152290441D01*
X222723841Y-152275039D01*
X222666068Y-152199746D01*
X222661844Y-152167235D01*
X222664178Y-151480937D01*
X222700794Y-151393383D01*
X222788599Y-151357363D01*
X222788741Y-151357363D01*
X224708994Y-151369673D01*
X224759999Y-151370000D01*
X224759998Y-151369999D01*
X224760000Y-151370000D01*
X224749867Y-146364249D01*
X224786008Y-146276496D01*
X224873616Y-146240000D01*
X226976249Y-146240000D01*
X227038249Y-146256613D01*
G37*
%TD.AperFunction*%
%TD*%
M02*
