M48
; DRILL file {KiCad 9.0.0} date 2026-02-06T13:22:11+0100
; FORMAT={-:-/ absolute / inch / decimal}
; #@! TF.CreationDate,2026-02-06T13:22:11+01:00
; #@! TF.GenerationSoftware,Kicad,Pcbnew,9.0.0
; #@! TF.FileFunction,Plated,1,4,PTH
FMAT,2
INCH
; #@! TA.AperFunction,Plated,PTH,ComponentDrill
T1C0.0079
; #@! TA.AperFunction,Plated,PTH,ViaDrill
T2C0.0118
; #@! TA.AperFunction,Plated,PTH,ComponentDrill
T3C0.0394
%
G90
G05
T1
X8.9213Y-5.8588
X8.9213Y-5.8981
X8.9213Y-5.9375
X8.9606Y-5.8588
X8.9606Y-5.8981
X8.9606Y-5.9375
X9.0Y-5.8588
X9.0Y-5.8981
X9.0Y-5.9375
T2
X8.5305Y-5.2394
X8.5335Y-5.4098
X8.5659Y-6.0728
X8.5776Y-5.8035
X8.5955Y-5.2394
X8.6177Y-5.8173
X8.6543Y-5.8043
X8.6787Y-5.8268
X8.6945Y-5.7787
X8.7244Y-5.9114
X8.7244Y-5.9992
X8.7504Y-6.0209
X8.7787Y-5.8768
X8.7839Y-5.2295
X8.7902Y-5.8024
X8.7976Y-6.0175
X8.8098Y-5.9169
X8.8197Y-5.2358
X8.8287Y-5.7102
X8.8761Y-5.543
X8.8823Y-5.2354
X8.8937Y-5.3563
X8.8937Y-5.6846
X8.8953Y-5.324
X8.9047Y-5.5504
X8.9184Y-5.6685
X8.9547Y-5.7311
X8.963Y-5.5898
X8.9937Y-5.6591
X9.0008Y-5.5906
X9.0362Y-5.6894
X9.128Y-5.9925
X9.2209Y-5.8906
X9.2815Y-5.7272
X9.2921Y-5.924
X9.3327Y-5.752
X9.3409Y-5.613
X9.3417Y-5.6965
X9.3532Y-5.7736
X9.4646Y-5.4618
X9.5582Y-5.7264
X9.6972Y-5.4063
X9.8031Y-5.3972
X9.9213Y-5.3121
X10.1024Y-5.8489
X10.2382Y-5.3949
T3
X8.1697Y-5.3811
X8.1697Y-5.5386
X8.1697Y-5.6961
X8.1697Y-5.8535
M30
