%TF.GenerationSoftware,KiCad,Pcbnew,9.0.0*%
%TF.CreationDate,2026-02-06T13:22:11+01:00*%
%TF.ProjectId,Integrated_ACG_separate_v2,496e7465-6772-4617-9465-645f4143475f,rev?*%
%TF.SameCoordinates,Original*%
%TF.FileFunction,Copper,L2,Inr*%
%TF.FilePolarity,Positive*%
%FSLAX46Y46*%
G04 Gerber Fmt 4.6, Leading zero omitted, Abs format (unit mm)*
G04 Created by KiCad (PCBNEW 9.0.0) date 2026-02-06 13:22:11*
%MOMM*%
%LPD*%
G01*
G04 APERTURE LIST*
%TA.AperFunction,HeatsinkPad*%
%ADD10C,0.500000*%
%TD*%
%TA.AperFunction,ComponentPad*%
%ADD11C,1.905000*%
%TD*%
%TA.AperFunction,ViaPad*%
%ADD12C,0.600000*%
%TD*%
%TA.AperFunction,Conductor*%
%ADD13C,0.200000*%
%TD*%
G04 APERTURE END LIST*
D10*
%TO.N,GND*%
%TO.C,U1*%
X226600000Y-150812500D03*
X227600000Y-150812500D03*
X228600000Y-150812500D03*
X226600000Y-149812500D03*
X227600000Y-149812500D03*
X228600000Y-149812500D03*
X226600000Y-148812500D03*
X227600000Y-148812500D03*
X228600000Y-148812500D03*
%TD*%
D11*
%TO.N,GND*%
%TO.C,J1*%
X207510005Y-148679893D03*
%TO.N,/uController/LIN*%
X207510005Y-144679893D03*
%TO.N,unconnected-(J1-Pin_3-Pad3)*%
X207510005Y-140679893D03*
%TO.N,+12V*%
X207510005Y-136679893D03*
%TD*%
D12*
%TO.N,+12V*%
X217575000Y-154250000D03*
%TO.N,+5V*%
X231850000Y-152210000D03*
X216675000Y-133080000D03*
X216750000Y-137410000D03*
X220440000Y-148000000D03*
X223770000Y-150290000D03*
X225898909Y-136048909D03*
X246310000Y-137320000D03*
%TO.N,GND*%
X223460000Y-152845000D03*
X260050000Y-137030000D03*
%TO.N,/uController/RST*%
X218325000Y-133080000D03*
X249000000Y-137090000D03*
%TO.N,/uController/MOSI*%
X227660000Y-141980000D03*
X223270000Y-147380000D03*
X237260000Y-142570000D03*
%TO.N,/LED_Driver/LAT*%
X221600000Y-150150000D03*
X226180000Y-140980000D03*
%TO.N,/uController/RSTN*%
X219820000Y-147430000D03*
X225610000Y-132980000D03*
%TO.N,/uController/TX*%
X218890000Y-147760000D03*
X224020000Y-132990000D03*
%TO.N,/LED_Driver/BLANK*%
X222980000Y-149270000D03*
X225453686Y-140793000D03*
%TO.N,/uController/SCK*%
X240400000Y-138730000D03*
X220840000Y-146780000D03*
%TO.N,/uController/EN*%
X222259000Y-152931000D03*
X225940000Y-135230000D03*
%TO.N,/uController/MISO*%
X228620000Y-142000000D03*
X237280000Y-144690000D03*
%TO.N,/uController/RX*%
X217870000Y-147410000D03*
X223110000Y-132830000D03*
%TO.N,+12V*%
X221600000Y-152380000D03*
%TO.N,/LED_Driver/R0*%
X224250000Y-145040000D03*
%TO.N,/LED_Driver/B0*%
X226527528Y-143979254D03*
%TO.N,/LED_Driver/G0*%
X225900000Y-144390000D03*
%TO.N,/LED_Driver/R1*%
X227450000Y-145570000D03*
%TO.N,/LED_Driver/G1*%
X228440000Y-143740000D03*
%TO.N,/LED_Driver/B1*%
X229520000Y-144510000D03*
%TO.N,/LED_Driver/B2*%
X237570768Y-146650000D03*
%TO.N,/LED_Driver/G2*%
X237050000Y-146100000D03*
%TO.N,/LED_Driver/R2*%
X242777329Y-145450000D03*
X235750000Y-145470000D03*
%TO.N,/LED_Driver/R3*%
X256600000Y-148562500D03*
%TO.N,/LED_Driver/G3*%
X234210000Y-149620000D03*
%TO.N,/LED_Driver/B3*%
X236020000Y-150470000D03*
%TO.N,Net-(IC1-(PTCXY{slash}AIN1)_PD7)*%
X252000000Y-134926648D03*
%TD*%
D13*
%TO.N,/uController/RST*%
X247380000Y-137090000D02*
X249000000Y-137090000D01*
X242569000Y-132279000D02*
X247380000Y-137090000D01*
X218325000Y-133080000D02*
X219126000Y-132279000D01*
X219126000Y-132279000D02*
X242569000Y-132279000D01*
%TO.N,/uController/MOSI*%
X237260000Y-142570000D02*
X236139000Y-141449000D01*
X226780000Y-142860000D02*
X225320768Y-142860000D01*
X228191000Y-141449000D02*
X227660000Y-141980000D01*
X223270000Y-147380000D02*
X223270000Y-144910768D01*
X225320768Y-142860000D02*
X223270000Y-144910768D01*
X236139000Y-141449000D02*
X228191000Y-141449000D01*
X227660000Y-141980000D02*
X226780000Y-142860000D01*
%TO.N,/LED_Driver/LAT*%
X226771000Y-140389000D02*
X226771000Y-134721768D01*
X226448232Y-134399000D02*
X225991768Y-134399000D01*
X226771000Y-134721768D02*
X226448232Y-134399000D01*
X225991768Y-134399000D02*
X221600000Y-138790768D01*
X226180000Y-140980000D02*
X226771000Y-140389000D01*
X221600000Y-138790768D02*
X221600000Y-150150000D01*
%TO.N,/uController/RSTN*%
X225610000Y-132980000D02*
X225190000Y-132980000D01*
X225190000Y-132980000D02*
X219820000Y-138350000D01*
X219820000Y-138350000D02*
X219820000Y-147430000D01*
%TO.N,/uController/TX*%
X224020000Y-132990000D02*
X224020000Y-133180000D01*
X218890000Y-138310000D02*
X218890000Y-147760000D01*
X224020000Y-133180000D02*
X218890000Y-138310000D01*
%TO.N,/LED_Driver/BLANK*%
X222620000Y-143760768D02*
X222620000Y-148910000D01*
X224840000Y-141406686D02*
X224840000Y-141540768D01*
X222620000Y-148910000D02*
X222980000Y-149270000D01*
X224840000Y-141540768D02*
X222620000Y-143760768D01*
X225453686Y-140793000D02*
X224840000Y-141406686D01*
%TO.N,/uController/SCK*%
X240400000Y-138730000D02*
X235666390Y-138730000D01*
X220840000Y-139054379D02*
X225846379Y-134048000D01*
X225846379Y-134048000D02*
X230984390Y-134048000D01*
X220840000Y-146780000D02*
X220840000Y-139054379D01*
X235666390Y-138730000D02*
X230984390Y-134048000D01*
%TO.N,/uController/EN*%
X225940000Y-135230000D02*
X222259000Y-138911000D01*
X222259000Y-138911000D02*
X222259000Y-152931000D01*
%TO.N,/uController/MISO*%
X237280000Y-144690000D02*
X234590000Y-142000000D01*
X234590000Y-142000000D02*
X228620000Y-142000000D01*
%TO.N,/uController/RX*%
X217870000Y-138420000D02*
X217870000Y-147410000D01*
X223110000Y-133180000D02*
X217870000Y-138420000D01*
X223110000Y-132830000D02*
X223110000Y-133180000D01*
%TD*%
M02*
