%TF.GenerationSoftware,KiCad,Pcbnew,9.0.0*%
%TF.CreationDate,2026-02-06T13:22:11+01:00*%
%TF.ProjectId,Integrated_ACG_separate_v2,496e7465-6772-4617-9465-645f4143475f,rev?*%
%TF.SameCoordinates,Original*%
%TF.FileFunction,Soldermask,Bot*%
%TF.FilePolarity,Negative*%
%FSLAX46Y46*%
G04 Gerber Fmt 4.6, Leading zero omitted, Abs format (unit mm)*
G04 Created by KiCad (PCBNEW 9.0.0) date 2026-02-06 13:22:11*
%MOMM*%
%LPD*%
G01*
G04 APERTURE LIST*
G04 Aperture macros list*
%AMRoundRect*
0 Rectangle with rounded corners*
0 $1 Rounding radius*
0 $2 $3 $4 $5 $6 $7 $8 $9 X,Y pos of 4 corners*
0 Add a 4 corners polygon primitive as box body*
4,1,4,$2,$3,$4,$5,$6,$7,$8,$9,$2,$3,0*
0 Add four circle primitives for the rounded corners*
1,1,$1+$1,$2,$3*
1,1,$1+$1,$4,$5*
1,1,$1+$1,$6,$7*
1,1,$1+$1,$8,$9*
0 Add four rect primitives between the rounded corners*
20,1,$1+$1,$2,$3,$4,$5,0*
20,1,$1+$1,$4,$5,$6,$7,0*
20,1,$1+$1,$6,$7,$8,$9,0*
20,1,$1+$1,$8,$9,$2,$3,0*%
G04 Aperture macros list end*
%ADD10R,3.300000X3.300000*%
%ADD11RoundRect,0.062500X-0.375000X0.062500X-0.375000X-0.062500X0.375000X-0.062500X0.375000X0.062500X0*%
%ADD12RoundRect,0.062500X-0.062500X0.375000X-0.062500X-0.375000X0.062500X-0.375000X0.062500X0.375000X0*%
%ADD13RoundRect,0.250000X-0.250000X-0.475000X0.250000X-0.475000X0.250000X0.475000X-0.250000X0.475000X0*%
%ADD14R,3.000000X1.000000*%
%ADD15R,1.150000X1.000000*%
%ADD16R,2.000000X0.610000*%
%ADD17R,3.600000X2.680000*%
%ADD18RoundRect,0.200000X-0.200000X-0.275000X0.200000X-0.275000X0.200000X0.275000X-0.200000X0.275000X0*%
%ADD19RoundRect,0.250000X0.250000X0.475000X-0.250000X0.475000X-0.250000X-0.475000X0.250000X-0.475000X0*%
%ADD20RoundRect,0.200000X0.200000X0.275000X-0.200000X0.275000X-0.200000X-0.275000X0.200000X-0.275000X0*%
%ADD21RoundRect,0.250000X0.475000X-0.250000X0.475000X0.250000X-0.475000X0.250000X-0.475000X-0.250000X0*%
%ADD22RoundRect,0.200000X-0.275000X0.200000X-0.275000X-0.200000X0.275000X-0.200000X0.275000X0.200000X0*%
%ADD23R,0.850000X0.300000*%
%ADD24R,0.300000X0.850000*%
%ADD25R,3.200000X3.200000*%
%ADD26R,0.305600X0.757199*%
%ADD27R,2.438400X1.651000*%
%ADD28C,1.905000*%
G04 APERTURE END LIST*
D10*
%TO.C,U1*%
X227600000Y-149812500D03*
D11*
X225162500Y-148062500D03*
X225162500Y-148562500D03*
X225162500Y-149062500D03*
X225162500Y-149562500D03*
X225162500Y-150062500D03*
X225162500Y-150562500D03*
X225162500Y-151062500D03*
X225162500Y-151562500D03*
D12*
X225850000Y-152250000D03*
X226350000Y-152250000D03*
X226850000Y-152250000D03*
X227350000Y-152250000D03*
X227850000Y-152250000D03*
X228350000Y-152250000D03*
X228850000Y-152250000D03*
X229350000Y-152250000D03*
D11*
X230037500Y-151562500D03*
X230037500Y-151062500D03*
X230037500Y-150562500D03*
X230037500Y-150062500D03*
X230037500Y-149562500D03*
X230037500Y-149062500D03*
X230037500Y-148562500D03*
X230037500Y-148062500D03*
D12*
X229350000Y-147375000D03*
X228850000Y-147375000D03*
X228350000Y-147375000D03*
X227850000Y-147375000D03*
X227350000Y-147375000D03*
X226850000Y-147375000D03*
X226350000Y-147375000D03*
X225850000Y-147375000D03*
%TD*%
D13*
%TO.C,C3*%
X228060000Y-135400000D03*
X229960000Y-135400000D03*
%TD*%
D14*
%TO.C,J2*%
X245530000Y-145410000D03*
X240490000Y-145410000D03*
X245530000Y-142870000D03*
X240490000Y-142870000D03*
X245530000Y-140330000D03*
X240490000Y-140330000D03*
%TD*%
D15*
%TO.C,Y1*%
X228130000Y-137390000D03*
X229880000Y-137390000D03*
X229880000Y-138790000D03*
X228130000Y-138790000D03*
%TD*%
D16*
%TO.C,J3*%
X253360000Y-137690000D03*
X253360000Y-138690000D03*
X253360000Y-139690000D03*
X253360000Y-140690000D03*
X253360000Y-141690000D03*
D17*
X256160000Y-134700000D03*
X256160000Y-144680000D03*
%TD*%
D18*
%TO.C,R2*%
X216675000Y-133080000D03*
X218325000Y-133080000D03*
%TD*%
D19*
%TO.C,C1*%
X233730000Y-152290000D03*
X231830000Y-152290000D03*
%TD*%
D20*
%TO.C,R3*%
X217575000Y-154250000D03*
X215925000Y-154250000D03*
%TD*%
D21*
%TO.C,C2*%
X216750000Y-137410000D03*
X216750000Y-135510000D03*
%TD*%
D22*
%TO.C,R1*%
X223460000Y-151195000D03*
X223460000Y-152845000D03*
%TD*%
D23*
%TO.C,IC1*%
X224870000Y-134770000D03*
X224870000Y-135270000D03*
X224870000Y-135770000D03*
X224870000Y-136270000D03*
X224870000Y-136770000D03*
X224870000Y-137270000D03*
X224870000Y-137770000D03*
X224870000Y-138270000D03*
D24*
X224170000Y-138970000D03*
X223670000Y-138970000D03*
X223170000Y-138970000D03*
X222670000Y-138970000D03*
X222170000Y-138970000D03*
X221670000Y-138970000D03*
X221170000Y-138970000D03*
X220670000Y-138970000D03*
D23*
X219970000Y-138270000D03*
X219970000Y-137770000D03*
X219970000Y-137270000D03*
X219970000Y-136770000D03*
X219970000Y-136270000D03*
X219970000Y-135770000D03*
X219970000Y-135270000D03*
X219970000Y-134770000D03*
D24*
X220670000Y-134070000D03*
X221170000Y-134070000D03*
X221670000Y-134070000D03*
X222170000Y-134070000D03*
X222670000Y-134070000D03*
X223170000Y-134070000D03*
X223670000Y-134070000D03*
X224170000Y-134070000D03*
D25*
X222420000Y-136520000D03*
%TD*%
D20*
%TO.C,R5*%
X250185000Y-134230000D03*
X248535000Y-134230000D03*
%TD*%
D21*
%TO.C,C4*%
X232170000Y-138810000D03*
X232170000Y-136910000D03*
%TD*%
D26*
%TO.C,U2*%
X220160000Y-151890000D03*
X219499600Y-151890000D03*
X218839200Y-151890000D03*
X218178800Y-151890000D03*
X218178800Y-148948400D03*
X218839200Y-148948400D03*
X219499600Y-148948400D03*
X220160000Y-148948400D03*
D27*
X219169400Y-150419200D03*
%TD*%
D28*
%TO.C,J1*%
X207510005Y-148679893D03*
X207510005Y-144679893D03*
X207510005Y-140679893D03*
X207510005Y-136679893D03*
%TD*%
M02*
